<?xml version="1.0" encoding="utf-8"?>
<!-- Generator: Adobe Illustrator 25.0.0, SVG Export Plug-In . SVG Version: 6.00 Build 0)  -->
<svg version="1.1" id="Layer_1" xmlns="http://www.w3.org/2000/svg" xmlns:xlink="http://www.w3.org/1999/xlink" x="0px" y="0px"
	 viewBox="0 0 200 200" style="enable-background:new 0 0 200 200;" xml:space="preserve">
<style type="text/css">
	.st0{fill:#FF1BAB;}
</style>
<g>
	<path class="st0" d="M100.4,179.5c-15.4,0-30.2-3.4-43.8-10.2c-0.1,0-0.1-0.1-0.2-0.1c-4-2-7.8-4.2-11.5-6.7l0,0
		c-0.1-0.1-0.2-0.1-0.2-0.2c-8-6-14.5-14-18.7-23.1c-1.2-2.6-2.2-5.3-3-8c0-0.1,0-0.1,0-0.2c-0.7-2.4-1.3-4.9-1.7-7.4
		c-1.1-6.1-1.7-12.3-1.7-18.5c0-6.3,0.6-12.6,1.8-18.7c-2.1-2.9-4-6-5.6-9.3c-4-8.2-6-17.1-6-26.3c0-3.5,0.3-6.9,0.9-10.2
		c0.1-0.5,0.2-1.1,0.3-1.7c0.9-4.6,2.4-9.1,4.3-13.4c0.4-0.9,1.2-1.7,2.2-2c1.4-0.5,2.8-0.9,4.3-1.3c0,0,0.1,0,0.1,0
		c4-1,11.7-1.8,12.9-1.8v0c0.7,0,1.4,0,2.2,0c8.9,0,17.5,1.9,25.5,5.6c2.8,1.3,5.5,2.8,8.1,4.6c5.1-1.6,10.3-2.8,15.6-3.6
		c9.4-1.4,19.2-1.4,28.6,0c5.3,0.8,10.6,2,15.6,3.6c2.6-1.7,5.3-3.3,8.1-4.6c8-3.7,16.6-5.6,25.5-5.6c0.8,0,1.5,0,2.2,0c0,0,0,0,0,0
		c4.4,0.2,8.7,0.8,12.9,1.9c0,0,0.1,0,0.1,0c1.4,0.4,2.8,0.8,4.3,1.3c1,0.3,1.8,1.1,2.2,2c2,4.3,3.4,8.8,4.3,13.4
		c0.1,0.6,0.2,1.1,0.3,1.7c0.6,3.3,0.9,6.7,0.9,10.2c0,9.2-2,18-6,26.3v0c-1.6,3.3-3.4,6.4-5.6,9.3c1.2,6.1,1.8,12.4,1.8,18.7
		c0,6.2-0.6,12.4-1.7,18.5c-0.4,2.6-1,5.1-1.7,7.5c0,0,0,0.1,0,0.1c-0.8,2.7-1.8,5.4-3,8c-4.2,9.1-10.7,17.1-18.7,23.1
		c-0.1,0.1-0.2,0.1-0.2,0.2l0,0c-3.7,2.5-7.5,4.7-11.5,6.7c-0.1,0-0.1,0.1-0.2,0.1C130.5,176.1,115.8,179.5,100.4,179.5z
		 M59.6,162.4c0.1,0,0.2,0.1,0.2,0.1c12.6,6.3,26.3,9.5,40.6,9.5s27.9-3.2,40.6-9.5c0.1,0,0.1-0.1,0.2-0.1c3.6-1.8,7.1-3.8,10.4-6.1
		l0,0c7.1-5.3,12.8-12.3,16.5-20.3c1.1-2.3,2-4.7,2.7-7l0,0c0,0,0,0,0-0.1c0,0,0,0,0,0c0.6-2.1,1.1-4.3,1.5-6.6c0,0,0-0.1,0-0.1
		c1.1-5.6,1.6-11.4,1.6-17.2c0-6.3-0.7-12.7-1.9-18.8c-0.2-1.1,0-2.2,0.7-3.1c2.2-2.9,4.2-6,5.8-9.4l0,0c3.5-7.2,5.2-15,5.2-23
		c0-3-0.3-6-0.8-9c-0.1-0.5-0.2-1-0.3-1.5c-0.7-3.5-1.8-7-3.2-10.3c-0.7-0.2-1.4-0.4-2.1-0.6c0,0-0.1,0-0.1,0
		c-3.7-1-7.5-1.5-11.4-1.6c0,0,0,0,0,0c-0.6,0-1.2,0-1.9,0c-7.8,0-15.3,1.7-22.4,4.9c-3,1.4-5.8,3-8.5,4.9c-1,0.7-2.2,0.9-3.4,0.5
		c-5.2-1.8-10.6-3.1-16.1-3.9c-8.7-1.3-17.7-1.3-26.4,0C81.7,35,76.3,36.3,71,38.1c-1.1,0.4-2.4,0.2-3.4-0.5
		c-2.7-1.9-5.5-3.6-8.5-4.9c-7-3.3-14.5-4.9-22.4-4.9c-0.6,0-1.2,0-1.8,0c-2.1,0.2-8.5,0.9-11.5,1.6c0,0-0.1,0-0.1,0
		c-0.7,0.2-1.4,0.4-2.1,0.6c-1.4,3.3-2.4,6.7-3.1,10.3c-0.1,0.5-0.2,1-0.3,1.5c-0.5,3-0.8,6-0.8,9c0,8.1,1.8,15.8,5.2,23
		c1.6,3.3,3.5,6.5,5.8,9.4c0.7,0.9,0.9,2,0.7,3.1c-1.3,6.2-1.9,12.5-1.9,18.8c0,5.8,0.5,11.5,1.6,17.2c0,0,0,0.1,0,0.1
		c0.4,2.2,0.9,4.5,1.5,6.6c0,0,0,0.1,0,0.1c0.7,2.4,1.6,4.7,2.7,7c3.7,8,9.4,15,16.5,20.3l0,0C52.5,158.6,56,160.6,59.6,162.4z
		 M59.8,162.5C59.8,162.5,59.8,162.5,59.8,162.5C59.8,162.5,59.8,162.5,59.8,162.5z M59.6,162.4C59.6,162.4,59.6,162.4,59.6,162.4
		C59.6,162.4,59.6,162.4,59.6,162.4z M177.9,131.3L177.9,131.3L177.9,131.3z M170.7,129.2L170.7,129.2
		C170.7,129.2,170.7,129.2,170.7,129.2z M170.7,129.2L170.7,129.2L170.7,129.2z M181.8,75.4L181.8,75.4L181.8,75.4z"/>
</g>
<g>
	<path class="st0" d="M32.9,75.3c-1,0-2-0.6-2.4-1.5c-2.6-5.5-4-11.4-4-17.5c0-6,1.3-11.7,3.8-17.1c0.3-0.8,1-1.3,1.8-1.5
		c2.9-0.7,6-1,9-1c7.1,0,14.2,1.9,20.3,5.4c0.9,0.5,1.5,1.6,1.3,2.7c-0.1,1.1-0.9,2-2,2.2c-12.7,3.4-22.3,13.4-25.2,26.2
		c-0.3,1.1-1.2,1.9-2.3,2.1C33.1,75.3,33,75.3,32.9,75.3z M34.7,42.7c-1.8,4.3-2.7,8.9-2.7,13.6c0,2.8,0.3,5.5,0.9,8.1
		c4-9,11.2-16.2,20.2-20.3c-3.8-1.4-7.8-2.1-11.9-2.1C39,42.1,36.8,42.3,34.7,42.7z"/>
</g>
<g>
	<path class="st0" d="M167.4,75.3c-0.1,0-0.2,0-0.3,0c-1.1-0.1-2.1-1-2.3-2.1c-2.9-12.8-12.6-22.8-25.2-26.2c-1.1-0.3-1.8-1.2-2-2.2
		c-0.1-1.1,0.4-2.1,1.3-2.7c6.1-3.6,13.1-5.4,20.3-5.4c3,0,6.1,0.3,9,1c0.8,0.2,1.5,0.7,1.8,1.5c2.5,5.4,3.8,11.1,3.8,17.1
		c0,6.1-1.3,12-4,17.5C169.4,74.7,168.4,75.3,167.4,75.3z M147.3,44.1c9,4.1,16.2,11.3,20.2,20.3c0.6-2.6,0.9-5.4,0.9-8.1
		c0-4.7-0.9-9.3-2.7-13.6c-2.1-0.4-4.3-0.6-6.5-0.6C155.1,42.1,151.1,42.8,147.3,44.1z"/>
</g>
<g>
	<path class="st0" d="M113.8,132.4c-3.3,5.4-7.9,9.9-13.4,13.1c-5.3-3.1-9.8-7.4-13.1-12.6c4.3-1.7,9-2.7,13.9-2.7
		C105.7,130.2,109.9,131,113.8,132.4z"/>
</g>
<g>
	<path class="st0" d="M128.9,101.1c0,0.3,0,0.7,0,1c0.1,2.9,0.5,5.7,1.2,8.4h0c1.1,4.4,3.1,8.6,5.6,12.2c2.6-3.7,4.5-7.8,5.6-12.3
		c0.7-2.7,1.1-5.5,1.2-8.4c0-0.3,0-0.7,0-1c0-0.3,0-0.6,0-0.9c-0.1-2.9-0.5-5.7-1.1-8.4c-1.1-4.5-3.1-8.7-5.6-12.3
		c-2.6,3.7-4.5,7.9-5.6,12.3c-0.7,2.7-1.1,5.5-1.1,8.3C128.9,100.5,128.9,100.8,128.9,101.1z"/>
</g>
<g>
	<path class="st0" d="M135.7,134.3c-6.3,0-12.3-1.4-17.9-4.2c0,0-0.1,0-0.1,0c-1-0.5-1.9-1-2.8-1.5c-0.1,0-0.1-0.1-0.2-0.1
		c-2.3-1.5-4.2-3.4-5.8-5.6c0-0.1-0.1-0.1-0.1-0.2l0,0c-0.6-1-1.2-2-1.7-3c0,0,0,0,0-0.1c0-0.1-0.1-0.1-0.1-0.2
		c-2.9-5.7-4.3-11.8-4.3-18.2c0-6.7,1.7-13.3,4.8-19.1l0.2-0.4c0.1-0.2,0.2-0.3,0.3-0.5c0.1-0.2,0.2-0.3,0.3-0.5c0,0,0,0,0,0
		c0.1-0.2,0.2-0.3,0.3-0.5c0,0,0.1-0.1,0.1-0.1l0,0l0,0c0,0,0,0,0,0c0.1-0.1,0.2-0.2,0.2-0.4c0,0,0-0.1,0.1-0.1c0,0,0.1-0.1,0.1-0.1
		l0.1-0.2c0-0.1,0.1-0.1,0.1-0.2c0,0,0.1-0.1,0.1-0.2c0,0,0.1-0.1,0.1-0.1c0,0,0.1-0.1,0.1-0.1c0.1-0.1,0.1-0.2,0.2-0.3
		c0,0,0-0.1,0.1-0.1c0,0,0,0,0.1-0.1c0,0,0,0,0.1-0.1c0,0,0,0,0-0.1c0,0,0,0,0,0c0,0,0,0,0,0c0,0,0,0,0.1-0.1c0-0.1,0.1-0.1,0.1-0.2
		c0,0,0,0,0.1-0.1c0.1-0.1,0.1-0.2,0.2-0.2c0.1-0.1,0.1-0.2,0.2-0.2c0.1-0.1,0.3-0.3,0.4-0.4c0.1-0.1,0.3-0.3,0.4-0.4
		c0.1-0.1,0.2-0.2,0.4-0.4c0.2-0.2,0.4-0.4,0.6-0.6c0.1-0.1,0.2-0.1,0.2-0.2c0,0,0,0,0,0c0,0,0.1-0.1,0.1-0.1c0,0,0.1,0,0.1-0.1
		l0.1,0c0.1-0.1,0.1-0.1,0.2-0.2c0,0,0.1-0.1,0.1-0.1c0,0,0.1-0.1,0.1-0.1c0,0,0,0,0,0c0.1-0.1,0.2-0.1,0.3-0.2c0,0,0,0,0,0
		c0,0,0.1,0,0.1-0.1c0.1,0,0.1-0.1,0.2-0.1c0,0,0.1-0.1,0.1-0.1c0.1,0,0.1-0.1,0.2-0.1c0,0,0,0,0.1,0c0.1-0.1,0.3-0.2,0.4-0.3
		c0,0,0.1,0,0.1-0.1c0.9-0.5,1.8-1,2.7-1.5c0,0,0.1,0,0.1,0c5.6-2.8,11.7-4.2,18-4.2c6.3,0,12.3,1.4,17.8,4.1c0,0,0,0,0.1,0
		c1.1,0.5,2.1,1.1,3,1.7c0.1,0,0.1,0.1,0.2,0.1c0.1,0,0.2,0.1,0.2,0.2c2.3,1.6,4.3,3.6,5.9,6c0,0,0,0.1,0.1,0.1l0,0
		c0.5,0.8,0.9,1.6,1.4,2.5c0,0,0,0.1,0,0.1c0,0,0,0.1,0,0.1c2.9,5.7,4.4,11.9,4.4,18.3c0,6.4-1.5,12.6-4.4,18.3c0,0,0,0,0,0
		c0,0,0,0.1-0.1,0.2c-0.5,1-1.1,2-1.6,2.9l0,0c0,0.1-0.1,0.1-0.1,0.2c-1.5,2.2-3.5,4.2-5.8,5.7c0,0,0,0,0,0c-0.1,0-0.1,0.1-0.2,0.1
		c-1,0.6-1.9,1.1-2.9,1.6c0,0,0,0,0,0c0,0-0.1,0-0.1,0.1C148,132.9,142,134.3,135.7,134.3z M120.1,125.3
		C120.1,125.3,120.1,125.3,120.1,125.3c4.9,2.4,10.1,3.6,15.6,3.6c5.5,0,10.7-1.2,15.5-3.6c0,0,0,0,0,0c0,0,0.1,0,0.1-0.1
		c0.8-0.4,1.6-0.8,2.5-1.3c0,0,0,0,0,0c1.7-1.2,3.2-2.6,4.3-4.3c0,0,0,0,0,0c0.5-0.8,1-1.6,1.4-2.5c0,0,0,0,0,0
		c0-0.1,0.1-0.1,0.1-0.2c2.5-4.9,3.7-10.2,3.7-15.8c0-5.6-1.3-11-3.8-15.9c0,0,0-0.1-0.1-0.1c-0.3-0.7-0.7-1.3-1.1-2l0,0
		c-1.2-1.8-2.7-3.4-4.5-4.6c0,0,0,0,0,0c0,0,0,0,0,0c-0.8-0.5-1.7-1-2.6-1.4c0,0-0.1,0-0.1,0l0,0c-4.9-2.4-10.1-3.6-15.5-3.6
		c-5.5,0-10.8,1.2-15.7,3.7c0,0-0.1,0-0.1,0.1c-0.7,0.4-1.5,0.8-2.2,1.2c0,0,0,0,0,0c0,0,0,0,0,0c-0.1,0-0.1,0.1-0.2,0.1
		c0,0-0.1,0.1-0.1,0.1c0,0,0,0-0.1,0c0,0-0.1,0-0.1,0.1c-0.1,0-0.1,0.1-0.2,0.1c0,0-0.1,0-0.1,0.1c0,0-0.1,0.1-0.1,0.1
		c0,0-0.1,0-0.1,0.1c0,0,0,0-0.1,0c0,0-0.1,0-0.1,0.1c0,0,0,0,0,0l0,0c0,0-0.1,0.1-0.2,0.1l-0.1,0.1c0,0,0,0,0,0
		c0,0-0.1,0.1-0.1,0.1l-0.1,0.1c0,0-0.1,0.1-0.1,0.1c-0.2,0.1-0.3,0.3-0.4,0.4c0,0,0,0,0,0c-0.1,0.1-0.1,0.1-0.2,0.2c0,0,0,0,0,0
		c-0.1,0.1-0.2,0.2-0.3,0.3c-0.1,0.1-0.2,0.2-0.3,0.3c0,0,0,0,0,0c-0.8,1-0.8,1-1.6,2.1c0,0,0,0,0,0.1c-0.1,0.1-0.2,0.2-0.2,0.3
		c-0.1,0.2-0.2,0.3-0.2,0.4c0,0,0,0,0,0.1c-0.1,0.1-0.1,0.2-0.2,0.3l-0.2,0.4c-2.7,5-4.1,10.8-4.1,16.5c0,5.6,1.3,10.9,3.8,15.8
		c0,0,0,0,0,0c0,0.1,0.1,0.1,0.1,0.2c0.4,0.9,0.9,1.7,1.4,2.5c0,0,0,0,0,0c1.2,1.7,2.6,3.1,4.3,4.3c0.8,0.5,1.6,0.9,2.4,1.3
		C120,125.3,120.1,125.3,120.1,125.3z M107,119.6C107.1,119.6,107.1,119.6,107,119.6C107.1,119.6,107.1,119.6,107,119.6z
		 M159.6,117.1C159.6,117.1,159.6,117.1,159.6,117.1L159.6,117.1L159.6,117.1z M112.7,83.4L112.7,83.4L112.7,83.4z M112.7,83.4
		L112.7,83.4L112.7,83.4z M112.7,83.4C112.7,83.4,112.7,83.4,112.7,83.4C112.7,83.4,112.7,83.4,112.7,83.4z M112.7,83.4
		C112.7,83.4,112.7,83.4,112.7,83.4C112.7,83.4,112.7,83.4,112.7,83.4z M112.7,83.4C112.7,83.4,112.7,83.4,112.7,83.4
		C112.7,83.4,112.7,83.4,112.7,83.4z M112.7,83.4L112.7,83.4L112.7,83.4z M112.7,83.4L112.7,83.4L112.7,83.4z M111.9,79.9
		L111.9,79.9L111.9,79.9z M112,79.9L112,79.9L112,79.9z M117.1,78.8L117.1,78.8L117.1,78.8z M117.4,78.5
		C117.4,78.5,117.4,78.5,117.4,78.5C117.4,78.5,117.4,78.5,117.4,78.5z M117.5,78.4L117.5,78.4L117.5,78.4z M112.7,75.4
		C112.7,75.4,112.7,75.4,112.7,75.4C112.7,75.4,112.7,75.4,112.7,75.4z M112.7,75.4L112.7,75.4L112.7,75.4z M112.7,75.4
		C112.7,75.4,112.7,75.4,112.7,75.4C112.7,75.4,112.7,75.4,112.7,75.4z M112.7,75.4C112.7,75.4,112.7,75.4,112.7,75.4
		C112.7,75.4,112.7,75.4,112.7,75.4z M112.7,75.4L112.7,75.4L112.7,75.4z"/>
</g>
<g>
	<path class="st0" d="M73.9,100.9c0,0.3,0,0.7,0,1c-0.1,2.9-0.5,5.7-1.2,8.4h0c-1.1,4.4-3.1,8.6-5.6,12.2c-2.6-3.7-4.5-7.8-5.6-12.3
		c-0.7-2.7-1.1-5.5-1.2-8.4c0-0.3,0-0.7,0-1c0-0.3,0-0.6,0-0.9c0.1-2.9,0.5-5.7,1.1-8.4c1.1-4.5,3.1-8.7,5.6-12.3
		c2.6,3.7,4.5,7.9,5.6,12.3c0.7,2.7,1.1,5.5,1.1,8.3C73.8,100.3,73.9,100.6,73.9,100.9z"/>
</g>
<g>
	<path class="st0" d="M67.1,134.1c-6.3,0-12.3-1.4-17.9-4.2c0,0-0.1,0-0.1,0c-0.9-0.5-1.9-1-2.9-1.6l0,0c0,0-0.1,0-0.1-0.1
		c0,0,0,0-0.1,0c-2.3-1.5-4.2-3.5-5.8-5.7c0-0.1-0.1-0.1-0.1-0.2l0,0c-0.6-0.9-1.1-1.9-1.6-2.9c0-0.1-0.1-0.1-0.1-0.2c0,0,0,0,0,0
		c-2.9-5.7-4.4-11.9-4.4-18.3c0-6.4,1.5-12.6,4.3-18.3c0,0,0-0.1,0-0.1l0-0.1c0.4-0.8,0.9-1.7,1.4-2.5l0,0c0,0,0-0.1,0.1-0.1
		c1.6-2.4,3.5-4.4,5.9-6c0,0,0.1,0,0.1-0.1c0,0,0.1,0,0.1-0.1l0,0c0.1,0,0.1-0.1,0.2-0.1c0.9-0.6,2-1.1,3-1.7c0,0,0.1,0,0.1,0
		c5.6-2.7,11.6-4.1,17.8-4.1c6.3,0,12.4,1.4,18,4.2c0,0,0.1,0,0.1,0c0.9,0.4,1.8,0.9,2.7,1.5c0,0,0.1,0,0.1,0.1
		c0.1,0.1,0.3,0.2,0.4,0.3c0,0,0,0,0.1,0c0.1,0,0.1,0.1,0.2,0.1c0,0,0.1,0.1,0.1,0.1c0.1,0,0.1,0.1,0.2,0.2c0,0,0,0,0.1,0
		c0,0,0,0,0,0c0.1,0.1,0.2,0.1,0.3,0.2l0,0c0,0,0.1,0,0.1,0.1c0,0,0.1,0.1,0.1,0.1c0.1,0,0.1,0.1,0.2,0.2l0.1,0.1
		c0,0,0.1,0.1,0.1,0.1l0,0l0,0c0.1,0.1,0.2,0.1,0.2,0.2c0.2,0.2,0.4,0.4,0.6,0.6c0.1,0.1,0.3,0.2,0.4,0.4c0.1,0.1,0.3,0.3,0.4,0.4
		c0.1,0.1,0.3,0.3,0.4,0.4c0.1,0.1,0.2,0.2,0.2,0.2c0.1,0.1,0.1,0.2,0.2,0.2c0,0.1,0.1,0.1,0.1,0.2c0,0,0,0,0.1,0.1
		c0.8,0.9,0.8,0.9,1.6,2.1c0,0,0.1,0.1,0.1,0.1c0.1,0.2,0.2,0.3,0.3,0.4c0.1,0.2,0.2,0.4,0.3,0.5c0.1,0.2,0.2,0.3,0.3,0.5l0.2,0.4
		c3.1,5.8,4.8,12.4,4.8,19.1c0,6.4-1.4,12.5-4.3,18.2c0,0.1-0.1,0.2-0.1,0.2c0,0,0,0,0,0c-0.5,1.1-1.1,2.1-1.7,3l0,0
		c0,0.1-0.1,0.1-0.1,0.2c-1.6,2.2-3.5,4.1-5.8,5.6c0,0,0,0,0,0c0,0-0.1,0.1-0.1,0.1c-0.9,0.5-1.9,1.1-2.8,1.6c0,0,0,0,0,0
		c0,0-0.1,0-0.1,0.1C79.4,132.7,73.3,134.1,67.1,134.1z M51.5,125.1C51.5,125.1,51.5,125.1,51.5,125.1c4.9,2.4,10.1,3.6,15.5,3.6
		c5.5,0,10.7-1.2,15.6-3.6c0,0,0,0,0,0c0,0,0.1,0,0.1-0.1c0.8-0.4,1.6-0.9,2.4-1.3c1.7-1.2,3.2-2.6,4.4-4.3c0,0,0,0,0,0
		c0.5-0.8,1-1.6,1.4-2.5c0-0.1,0.1-0.1,0.1-0.2c0,0,0,0,0,0c2.5-4.9,3.8-10.3,3.8-15.8c0-5.5-1.3-10.9-3.7-15.8
		c-0.6-1.1-0.6-1.1-1.3-2.3c0,0,0,0,0,0c0,0,0,0,0,0c0,0,0-0.1-0.1-0.1c0-0.1-0.1-0.1-0.1-0.2c0,0-0.1-0.1-0.1-0.1l-0.2-0.3
		c0,0,0-0.1-0.1-0.1c0,0,0,0,0-0.1l0,0c0,0,0-0.1-0.1-0.1c0,0,0,0,0,0c0,0,0-0.1-0.1-0.1c0,0,0-0.1-0.1-0.1l0,0c0,0-0.1-0.1-0.1-0.1
		c0,0,0-0.1-0.1-0.1c0,0-0.1-0.1-0.1-0.1c0,0,0,0,0,0c0,0,0,0-0.1-0.1l0,0c0,0,0,0-0.1-0.1l0-0.1c0,0,0,0-0.1-0.1c0,0,0,0,0,0
		c-0.1-0.1-0.1-0.1-0.2-0.2c0,0,0,0-0.1-0.1c-0.1-0.1-0.2-0.2-0.3-0.3c0,0,0,0,0,0c-0.1-0.1-0.2-0.2-0.3-0.3c0,0,0,0,0,0
		c-0.1-0.1-0.1-0.1-0.2-0.2c0,0,0,0,0,0c-0.1-0.1-0.3-0.3-0.4-0.4c0,0-0.1-0.1-0.1-0.1l-0.1-0.1c0,0,0,0,0,0c0,0-0.1,0-0.1-0.1
		L86.3,79c0,0-0.1-0.1-0.1-0.1c0,0,0,0,0,0c0,0,0,0-0.1,0c0,0,0,0-0.1,0c0,0-0.1,0-0.1-0.1c0,0-0.1-0.1-0.1-0.1c0,0-0.1,0-0.1-0.1
		c-0.1,0-0.1-0.1-0.2-0.1c0,0-0.1,0-0.1-0.1c0,0,0,0-0.1,0c0,0-0.1-0.1-0.1-0.1c-0.1,0-0.1-0.1-0.2-0.1l0,0c0,0,0,0,0,0
		c-0.7-0.4-1.5-0.9-2.2-1.2c0,0-0.1,0-0.1,0c-4.9-2.5-10.2-3.7-15.7-3.7c-5.5,0-10.7,1.2-15.5,3.6c0,0-0.1,0-0.1,0
		c-0.9,0.5-1.8,0.9-2.6,1.4c0,0,0,0,0,0c0,0,0,0,0,0c-1.8,1.2-3.3,2.8-4.5,4.6c-0.4,0.7-0.8,1.3-1.1,2c0,0,0,0.1-0.1,0.1
		c-2.5,5-3.8,10.3-3.8,15.9c0,5.6,1.3,10.9,3.7,15.8c0,0.1,0.1,0.1,0.1,0.2c0,0,0,0,0,0c0.4,0.8,0.9,1.7,1.4,2.5c0,0,0,0,0,0
		c1.2,1.7,2.6,3.1,4.4,4.3l0,0c0.8,0.5,1.7,1,2.5,1.4C51.4,125.1,51.5,125.1,51.5,125.1z M95.7,119.4
		C95.7,119.4,95.7,119.4,95.7,119.4C95.7,119.4,95.7,119.4,95.7,119.4z M95.8,119.2L95.8,119.2L95.8,119.2z M93.4,117.9L93.4,117.9
		L93.4,117.9z M89.4,82.3L89.4,82.3L89.4,82.3z M89.4,82.3C89.4,82.3,89.4,82.3,89.4,82.3C89.4,82.3,89.4,82.3,89.4,82.3z
		 M89.4,82.3C89.4,82.3,89.4,82.3,89.4,82.3C89.4,82.3,89.4,82.3,89.4,82.3z M89.2,81.9C89.2,81.9,89.2,81.9,89.2,81.9
		C89.2,81.9,89.2,81.9,89.2,81.9C89.2,81.9,89.2,81.9,89.2,81.9L89.2,81.9z M89.2,81.9L89.2,81.9C89.2,81.9,89.2,81.9,89.2,81.9
		L89.2,81.9C89.2,81.9,89.2,81.9,89.2,81.9z M89.2,81.9L89.2,81.9C89.2,81.9,89.2,81.9,89.2,81.9L89.2,81.9
		C89.2,81.9,89.2,81.9,89.2,81.9z M88.4,81C88.4,81,88.4,81,88.4,81C88.4,81,88.4,81,88.4,81z M88.4,81L88.4,81L88.4,81z M88.4,81
		C88.4,81,88.4,81,88.4,81C88.4,81,88.4,81,88.4,81z M88.4,81L88.4,81L88.4,81z M88.2,80.7L88.2,80.7L88.2,80.7z M88.2,80.7
		C88.2,80.7,88.2,80.7,88.2,80.7C88.2,80.7,88.2,80.7,88.2,80.7z M90.9,79.8L90.9,79.8L90.9,79.8z M85.6,78.5L85.6,78.5L85.6,78.5z
		 M85.3,78.3C85.3,78.3,85.3,78.3,85.3,78.3C85.3,78.3,85.3,78.3,85.3,78.3z M85.3,78.2L85.3,78.2L85.3,78.2z M85.3,78.2
		C85.3,78.2,85.3,78.2,85.3,78.2C85.3,78.2,85.3,78.2,85.3,78.2z M85.3,78.2C85.3,78.2,85.3,78.2,85.3,78.2
		C85.3,78.2,85.3,78.2,85.3,78.2z M90.1,75.2C90.1,75.2,90.1,75.2,90.1,75.2C90.1,75.2,90.1,75.2,90.1,75.2z M90.1,75.1
		C90.1,75.2,90.1,75.2,90.1,75.1C90.1,75.2,90.1,75.2,90.1,75.1z M90.1,75.1L90.1,75.1L90.1,75.1z M90,75L90,75C90,75,90,75,90,75z
		 M89,74.3C89,74.3,89,74.3,89,74.3C89,74.3,89,74.3,89,74.3C89,74.3,89,74.3,89,74.3z"/>
</g>
</svg>
